HIERARCHY
ROOT joint_Root
{
	OFFSET 0.0 0.0 0.0
	CHANNELS 6 Xposition Yposition Zposition Zrotation Xrotation Yrotation 
	JOINT Hips
	{
		OFFSET 4.5925 91.4895 -427.239
		CHANNELS 6 Xposition Yposition Zposition Zrotation Xrotation Yrotation 
		JOINT Spine
		{
			OFFSET 15.7357 0.0 0.0
			CHANNELS 6 Xposition Yposition Zposition Zrotation Xrotation Yrotation 
			JOINT Chest
			{
				OFFSET 8.98455 -0.406207 0.0
				CHANNELS 6 Xposition Yposition Zposition Zrotation Xrotation Yrotation 
				JOINT Neck
				{
					OFFSET 16.3773 0.0 0.0
					CHANNELS 6 Xposition Yposition Zposition Zrotation Xrotation Yrotation 
					JOINT Head
					{
						OFFSET 6.45672 0.0 0.0
						CHANNELS 6 Xposition Yposition Zposition Zrotation Xrotation Yrotation 
						End Site
						{
							OFFSET 0.0 0.0 0.0
						}
					}
				}
				JOINT Shoulder_L
				{
					OFFSET 12.9942 -0.242716 4.98039
					CHANNELS 6 Xposition Yposition Zposition Zrotation Xrotation Yrotation 
					JOINT UpperArm_L
					{
						OFFSET 5.34809 0.0 0.0
						CHANNELS 6 Xposition Yposition Zposition Zrotation Xrotation Yrotation 
						JOINT LowerArm_L
						{
							OFFSET 24.3286 1.87007e-05 0.0
							CHANNELS 6 Xposition Yposition Zposition Zrotation Xrotation Yrotation 
							JOINT Hand_L
							{
								OFFSET 22.2916 0.0 0.0
								CHANNELS 6 Xposition Yposition Zposition Zrotation Xrotation Yrotation 
								End Site
								{
									OFFSET 0.0 0.0 0.0
								}
							}
						}
					}
				}
				JOINT Shoulder_R
				{
					OFFSET 12.9945 -0.242716 -4.98039
					CHANNELS 6 Xposition Yposition Zposition Zrotation Xrotation Yrotation 
					JOINT UpperArm_R
					{
						OFFSET -5.34813 0.0 0.0
						CHANNELS 6 Xposition Yposition Zposition Zrotation Xrotation Yrotation 
						JOINT LowerArm_R
						{
							OFFSET -24.3289 0.000322201 0.0
							CHANNELS 6 Xposition Yposition Zposition Zrotation Xrotation Yrotation 
							JOINT Hand_R
							{
								OFFSET -22.2915 -0.000108084 0.0
								CHANNELS 6 Xposition Yposition Zposition Zrotation Xrotation Yrotation 
								End Site
								{
									OFFSET 0.0 0.0 0.0
								}
							}
						}
					}
				}
			}
		}
		JOINT UpperLeg_L
		{
			OFFSET -2.19248 -6.46944 0.0
			CHANNELS 6 Xposition Yposition Zposition Zrotation Xrotation Yrotation 
			JOINT LowerLeg_L
			{
				OFFSET 39.0811 0.0 -1.23785e-05
				CHANNELS 6 Xposition Yposition Zposition Zrotation Xrotation Yrotation 
				JOINT Foot_L
				{
					OFFSET 40.9854 0.0 -1.26872e-05
					CHANNELS 6 Xposition Yposition Zposition Zrotation Xrotation Yrotation 
					JOINT Toes_L
					{
						OFFSET 11.7543 0.0 0.0
						CHANNELS 6 Xposition Yposition Zposition Zrotation Xrotation Yrotation 
						End Site
						{
							OFFSET 0.0 0.0 0.0
						}
					}
				}
			}
		}
		JOINT UpperLeg_R
		{
			OFFSET -2.19251 6.46944 0.0
			CHANNELS 6 Xposition Yposition Zposition Zrotation Xrotation Yrotation 
			JOINT LowerLeg_R
			{
				OFFSET -39.0811 -0.00228153 -0.0401928
				CHANNELS 6 Xposition Yposition Zposition Zrotation Xrotation Yrotation 
				JOINT Foot_R
				{
					OFFSET -40.9854 0.0 0.0
					CHANNELS 6 Xposition Yposition Zposition Zrotation Xrotation Yrotation 
					JOINT Toes_R
					{
						OFFSET -11.7543 0.0 0.0
						CHANNELS 6 Xposition Yposition Zposition Zrotation Xrotation Yrotation 
						End Site
						{
							OFFSET 0.0 0.0 0.0
						}
					}
				}
			}
		}
	}
}
MOTION
Frames:	9
Frame Time:	0.0333333
0.000000 0.000000 0.000000 0.000000 0.000000 -0.000000 -3.219130 82.928500 -1.455620 87.990300 -1.993080 10.209100 15.735700 0.000005 -0.000001 85.758600 81.783400 -85.934800 8.984550 -0.406207 -0.000000 8.621690 -1.210770 -0.260753 16.377300 -0.000001 -0.000001 -1.552000 -4.110000 2.044340 6.456720 -0.000001 -0.000000 -3.959890 -2.776200 0.735896 12.994200 -0.242716 4.980390 -91.218200 4.064560 -73.300900 5.348090 -0.000007 -0.000001 -62.535100 33.148400 -16.992600 24.328600 0.000019 0.000005 8.023630 19.509700 -22.882700 22.291600 -0.000001 0.000005 12.671700 5.213030 2.388460 12.994500 -0.242716 -4.980390 88.570100 8.325540 -80.218100 -5.348130 -0.000001 -0.000004 -53.959200 38.175000 -16.317600 -24.328900 0.000322 -0.000009 2.482430 4.165480 -30.831600 -22.291500 -0.000108 -0.000004 -4.131850 5.307990 -0.082194 -2.192480 -6.469440 -0.000000 -171.090000 -10.303800 -15.314000 39.081100 -0.000007 -0.000012 -0.375146 0.213969 60.302200 40.985400 -0.000006 -0.000013 -0.082535 6.597220 -84.301200 11.754300 -0.000000 0.000003 -0.000121 -0.001214 -16.623900 -2.192510 6.469440 -0.000001 -178.996000 12.172200 164.685000 -39.081100 -0.002282 -0.040193 0.094201 -0.052643 59.951100 -40.985400 0.000008 0.000006 7.958030 -0.008082 -84.543900 -11.754300 -0.000006 -0.000006 -0.055191 -0.076311 -17.038200
0.000000 0.000000 0.000000 0.000000 0.000000 -0.000000 -3.415270 85.132000 -0.751437 88.252000 -1.011320 9.680920 15.735700 0.000005 -0.000001 84.028400 82.721500 -85.058100 8.984550 -0.406207 -0.000000 6.700970 -1.500050 -1.969410 16.377300 -0.000001 -0.000001 0.125701 -4.216120 2.261300 6.456720 -0.000001 -0.000000 -2.524250 -3.252310 2.082080 12.994200 -0.242716 4.980390 -91.213900 3.811500 -72.318400 5.348090 -0.000007 -0.000001 -64.590000 30.771400 -14.438000 24.328600 0.000019 0.000005 6.730570 18.764300 -20.146400 22.291600 -0.000001 0.000005 12.466000 5.192830 2.899580 12.994500 -0.242716 -4.980390 88.774500 6.396020 -79.126100 -5.348130 -0.000001 -0.000004 -48.474100 36.925300 -18.667000 -24.328900 0.000322 -0.000009 2.353840 3.385640 -34.871500 -22.291500 -0.000108 -0.000004 -12.373500 5.244030 1.612970 -2.192480 -6.469440 -0.000000 -171.545000 -9.556700 -12.142400 39.081100 -0.000007 -0.000012 -0.316617 0.234734 53.448300 40.985400 -0.000006 -0.000013 -0.469463 6.733330 -81.259800 11.754300 -0.000000 0.000003 -0.000076 -0.000814 -16.609000 -2.192510 6.469440 -0.000001 -179.465000 13.322300 167.993000 -39.081100 -0.002282 -0.040193 0.082529 -0.058918 53.386800 -40.985400 0.000008 0.000006 7.957410 0.867089 -81.530500 -11.754300 -0.000006 -0.000006 -0.216196 -0.272576 -17.280400
0.000000 0.000000 0.000000 0.000000 0.000000 -0.000000 -3.554490 87.656100 0.110474 88.499800 -0.358575 8.905980 15.735700 0.000005 -0.000001 81.742200 83.837500 -83.600600 8.984550 -0.406207 -0.000000 4.407730 -1.712830 -3.646770 16.377300 -0.000001 -0.000001 2.116120 -4.063170 2.438230 6.456720 -0.000001 -0.000000 -0.885558 -3.026390 3.502360 12.994200 -0.242716 4.980390 -91.023000 3.001190 -71.163600 5.348090 -0.000007 -0.000001 -66.823300 28.253800 -10.692400 24.328600 0.000019 0.000005 6.592270 18.712600 -19.809800 22.291600 -0.000001 0.000005 10.985800 5.200000 2.717470 12.994500 -0.242716 -4.980390 89.161100 3.889600 -77.813000 -5.348130 -0.000001 -0.000004 -39.124800 32.278600 -22.745300 -24.328900 0.000322 -0.000009 2.031550 2.366070 -40.687300 -22.291500 -0.000108 -0.000004 -12.813400 5.244960 1.574730 -2.192480 -6.469440 -0.000000 -171.926000 -9.328270 -7.892660 39.081100 -0.000007 -0.000012 -0.257016 0.262490 44.396900 40.985400 -0.000006 -0.000013 -0.879703 7.012480 -77.278600 11.754300 -0.000000 0.000003 -0.000028 -0.000336 -16.590700 -2.192510 6.469440 -0.000001 179.990000 14.607900 172.086000 -39.081100 -0.002282 -0.040193 0.065069 -0.062031 44.895200 -40.985400 0.000008 0.000006 7.741800 2.458720 -77.341400 -11.754300 -0.000006 -0.000006 -0.317421 -0.399012 -17.852800
0.000000 0.000000 0.000000 0.000000 0.000000 -0.000000 -3.399990 89.651600 0.439704 88.716700 0.239363 6.610600 15.735700 0.000005 -0.000001 77.367900 85.263500 -79.804500 8.984550 -0.406207 -0.000000 1.442120 -1.936240 -4.844850 16.377300 -0.000001 -0.000001 3.512860 -3.653480 2.221590 6.456720 -0.000001 -0.000000 0.438364 -2.249820 4.157040 12.994200 -0.242716 4.980390 -90.687500 1.902920 -70.128700 5.348090 -0.000007 -0.000001 -68.538900 26.534200 -7.084440 24.328600 0.000019 0.000005 7.159640 18.871100 -21.224300 22.291600 -0.000001 0.000005 9.000650 5.212100 2.410610 12.994500 -0.242716 -4.980390 89.650900 1.457100 -76.513900 -5.348130 -0.000001 -0.000004 -26.378700 22.436900 -27.747000 -24.328900 0.000322 -0.000009 2.277560 2.169870 -46.416200 -22.291500 -0.000108 -0.000004 -8.097300 5.272390 0.842657 -2.192480 -6.469440 -0.000000 -172.727000 -9.799450 -6.001640 39.081100 -0.000007 -0.000012 -0.197677 0.271180 36.090600 40.985400 -0.000006 -0.000013 -1.028720 7.293980 -73.204700 11.754300 -0.000000 0.000003 -0.000017 -0.000220 -16.586200 -2.192510 6.469440 -0.000001 179.780000 16.209100 173.747000 -39.081100 -0.002282 -0.040193 0.049120 -0.060263 37.255300 -40.985400 0.000008 0.000006 7.590020 4.392560 -73.169600 -11.754300 -0.000006 -0.000006 -0.357325 -0.450571 -18.460100
0.000000 0.000000 0.000000 0.000000 0.000000 -0.000000 -3.295580 90.834200 0.404155 88.719900 0.559484 4.444000 15.735700 0.000005 -0.000001 73.670200 86.287600 -76.310100 8.984550 -0.406207 -0.000000 -0.678768 -1.892740 -5.288640 16.377300 -0.000001 -0.000001 3.748320 -3.001410 1.650280 6.456720 -0.000001 -0.000000 0.750021 -1.581450 3.668180 12.994200 -0.242716 4.980390 -90.529700 1.390020 -69.136100 5.348090 -0.000007 -0.000001 -68.729600 25.530700 -4.696760 24.328600 0.000019 0.000005 7.701720 18.332900 -23.265500 22.291600 -0.000001 0.000005 6.955640 5.225110 2.080100 12.994500 -0.242716 -4.980390 90.339900 -1.402120 -76.366900 -5.348130 -0.000001 -0.000004 -14.399400 6.371000 -29.609400 -24.328900 0.000322 -0.000009 2.940300 2.542370 -49.196800 -22.291500 -0.000108 -0.000004 0.044741 5.316850 -0.325331 -2.192480 -6.469440 -0.000000 -173.129000 -10.897100 -5.431560 39.081100 -0.000007 -0.000012 -0.156232 0.266767 30.355600 40.985400 -0.000006 -0.000013 -1.002630 8.158030 -70.201800 11.754300 -0.000000 0.000003 -0.000013 -0.000169 -16.584200 -2.192510 6.469440 -0.000001 -179.936000 17.656100 174.230000 -39.081100 -0.002282 -0.040193 0.038601 -0.057003 31.770300 -40.985400 0.000008 0.000006 7.514740 6.055430 -70.346500 -11.754300 -0.000006 -0.000006 -0.222735 -0.299214 -18.715700
0.000000 0.000000 0.000000 0.000000 0.000000 -0.000000 -3.205310 91.326800 0.318663 88.678000 1.003680 3.129470 15.735700 0.000005 -0.000001 75.337900 86.758900 -78.053600 8.984550 -0.406207 -0.000000 -1.522880 -1.420400 -5.448860 16.377300 -0.000001 -0.000001 3.356270 -2.727650 1.199320 6.456720 -0.000001 -0.000000 -0.142295 -1.533770 2.718680 12.994200 -0.242716 4.980390 -90.629900 1.601660 -68.529100 5.348090 -0.000007 -0.000001 -66.992100 25.256700 -3.852590 24.328600 0.000019 0.000005 8.249310 17.937700 -25.208400 22.291600 -0.000001 0.000005 6.824750 5.236260 1.793850 12.994500 -0.242716 -4.980390 91.292400 -5.456430 -76.653300 -5.348130 -0.000001 -0.000004 -6.641980 -14.558500 -27.506700 -24.328900 0.000322 -0.000009 0.399244 0.362765 -47.547800 -22.291500 -0.000108 -0.000004 8.576860 5.424460 -3.613230 -2.192480 -6.469440 -0.000000 -173.299000 -11.815200 -5.592530 39.081100 -0.000007 -0.000012 -0.133509 0.254027 27.725200 40.985400 -0.000006 -0.000013 -0.825277 9.315900 -68.742500 11.754300 -0.000000 0.000003 -0.000011 -0.000151 -16.583500 -2.192510 6.469440 -0.000001 -179.843000 19.714400 174.673000 -39.081100 -0.002282 -0.040193 0.032299 -0.053576 28.420900 -40.985400 0.000008 0.000006 7.758880 7.859910 -69.690600 -11.754300 -0.000006 -0.000006 -0.004049 -0.051953 -18.686400
0.000000 0.000000 0.000000 0.000000 0.000000 -0.000000 -3.283220 91.443900 0.106118 88.615300 2.140140 2.512090 15.735700 0.000005 -0.000001 79.733700 86.783700 -82.437700 8.984550 -0.406207 -0.000000 -1.452620 -0.928807 -5.418130 16.377300 -0.000001 -0.000001 2.746950 -3.323240 1.518770 6.456720 -0.000001 -0.000000 -1.708830 -1.831650 0.649463 12.994200 -0.242716 4.980390 -91.104900 2.748570 -68.091600 5.348090 -0.000007 -0.000001 -63.621700 24.651500 -4.251260 24.328600 0.000019 0.000005 9.161410 18.477600 -26.968700 22.291600 -0.000001 0.000005 7.896310 5.233480 1.862080 12.994500 -0.242716 -4.980390 92.613100 -10.351200 -75.755200 -5.348130 -0.000001 -0.000004 -4.317510 -39.133000 -26.187000 -24.328900 0.000322 -0.000009 -6.187670 -6.129480 -45.444900 -22.291500 -0.000108 -0.000004 17.035700 5.524710 -7.366390 -2.192480 -6.469440 -0.000000 -173.277000 -11.869600 -6.341230 39.081100 -0.000007 -0.000012 -0.126602 0.246068 27.225900 40.985400 -0.000006 -0.000013 -0.650158 10.476900 -68.204200 11.754300 -0.000000 0.000003 -0.000010 -0.000138 -16.583000 -2.192510 6.469440 -0.000001 -179.715000 21.966900 175.012000 -39.081100 -0.002282 -0.040193 0.026925 -0.046970 26.692700 -40.985400 0.000008 0.000006 8.020080 8.964700 -70.077000 -11.754300 -0.000006 -0.000006 -0.003716 -0.048449 -18.543800
0.000000 0.000000 0.000000 0.000000 0.000000 -0.000000 -3.579110 91.503200 -0.122964 88.609900 3.717960 2.292710 15.735700 0.000005 -0.000001 81.480500 86.625600 -84.125800 8.984550 -0.406207 -0.000000 -1.104610 -0.794958 -5.296280 16.377300 -0.000001 -0.000001 2.704270 -4.219190 3.258730 6.456720 -0.000001 -0.000000 -3.312080 -2.022900 -2.883330 12.994200 -0.242716 4.980390 -91.849800 4.447210 -67.389400 5.348090 -0.000007 -0.000001 -60.152000 22.912700 -5.250120 24.328600 0.000019 0.000005 10.003700 19.730600 -27.587000 22.291600 -0.000001 0.000005 10.446800 5.218280 2.253980 12.994500 -0.242716 -4.980390 94.342100 -14.874800 -73.526200 -5.348130 -0.000001 -0.000004 -8.772500 -61.705100 -32.012000 -24.328900 0.000322 -0.000009 -8.795020 -8.699150 -45.645800 -22.291500 -0.000108 -0.000004 24.301200 5.589240 -10.651600 -2.192480 -6.469440 -0.000000 -173.221000 -10.741900 -6.947910 39.081100 -0.000007 -0.000012 -0.122704 0.241100 26.973200 40.985400 -0.000006 -0.000013 -0.780387 10.938000 -67.703900 11.754300 -0.000000 0.000003 -0.000015 -0.000194 -16.585200 -2.192510 6.469440 -0.000001 -179.438000 23.484800 175.225000 -39.081100 -0.002282 -0.040193 0.025389 -0.045721 25.775700 -40.985400 0.000008 0.000006 8.220270 8.822280 -70.189100 -11.754300 -0.000006 -0.000006 -0.003710 -0.048389 -18.541300
0.000000 0.000000 0.000000 0.000000 0.000000 -0.000000 -4.020880 91.674500 -0.273171 88.530300 5.242890 1.663160 15.735700 0.000005 -0.000001 83.994100 86.710100 -86.643600 8.984550 -0.406207 -0.000000 -1.227870 -0.480515 -5.302190 16.377300 -0.000001 -0.000001 3.422540 -5.251990 4.866130 6.456720 -0.000001 -0.000000 -4.496230 -2.748650 -4.489150 12.994200 -0.242716 4.980390 -92.120500 5.021920 -67.072500 5.348090 -0.000007 -0.000001 -59.338600 19.072600 -6.288580 24.328600 0.000019 0.000005 10.163200 21.232800 -26.335600 22.291600 -0.000001 0.000005 14.101700 5.187030 3.033760 12.994500 -0.242716 -4.980390 95.868600 -17.483900 -71.114800 -5.348130 -0.000001 -0.000004 -13.397200 -74.917200 -40.994500 -24.328900 0.000322 -0.000009 -9.640430 -9.797820 -44.943900 -22.291500 -0.000108 -0.000004 24.658600 5.603190 -11.528200 -2.192480 -6.469440 -0.000000 -173.026000 -9.729340 -7.521860 39.081100 -0.000007 -0.000012 -0.122773 0.252472 25.933100 40.985400 -0.000006 -0.000013 -1.091520 11.463900 -66.840500 11.754300 -0.000000 0.000003 -0.000019 -0.000240 -16.587000 -2.192510 6.469440 -0.000001 -178.769000 24.827900 174.876000 -39.081100 -0.002282 -0.040193 0.024667 -0.046069 24.869300 -40.985400 0.000008 0.000006 8.331550 8.706200 -69.420000 -11.754300 -0.000006 -0.000006 -0.003769 -0.049018 -18.566900
